<?xml version="1.0" encoding="utf-8"?>
<!-- Generator: Adobe Illustrator 26.0.2, SVG Export Plug-In . SVG Version: 6.00 Build 0)  -->
<svg version="1.1" id="レイヤー_1" xmlns="http://www.w3.org/2000/svg" xmlns:xlink="http://www.w3.org/1999/xlink" x="0px"
	 y="0px" viewBox="0 0 319 115" style="enable-background:new 0 0 319 115;" xml:space="preserve">
<g>
	<path d="M23.4,13c0,1.1-0.4,2.1-1.3,3c-0.9,0.9-1.9,1.3-3,1.3c-1.1,0-2.1-0.4-3-1.3c-0.9-0.9-1.3-1.9-1.3-3s0.4-2.1,1.3-3
		c0.9-0.9,1.9-1.3,3-1.3c1.1,0,2.1,0.4,3,1.3C23,10.8,23.4,11.8,23.4,13z M21.9,13c0-0.9-0.3-1.6-0.8-2.1c-0.5-0.5-1.2-0.8-2.1-0.8
		s-1.6,0.3-2.1,0.8c-0.5,0.5-0.8,1.2-0.8,2.1c0,0.9,0.3,1.6,0.8,2.1c0.5,0.5,1.2,0.8,2.1,0.8s1.6-0.3,2.1-0.8
		C21.6,14.5,21.9,13.9,21.9,13z"/>
	<path d="M50.9,49c0,1.4-0.4,2.5-1.3,3.4c-0.9,0.9-2,1.3-3.4,1.3c-1.4,0-2.5-0.4-3.4-1.3c-0.9-0.9-1.3-2-1.3-3.4
		c0-1.4,0.4-2.5,1.3-3.4c0.9-0.9,2-1.3,3.4-1.3c1.4,0,2.5,0.4,3.4,1.3C50.5,46.5,50.9,47.6,50.9,49z M49.6,49c0-1-0.3-1.8-0.9-2.4
		c-0.6-0.6-1.4-0.9-2.4-0.9c-1,0-1.8,0.3-2.4,0.9c-0.6,0.6-0.9,1.4-0.9,2.4c0,1,0.3,1.8,0.9,2.4c0.6,0.6,1.4,0.9,2.4,0.9
		c1,0,1.8-0.3,2.4-0.9S49.6,50,49.6,49z"/>
	<path d="M97.4,53.5h-1.9l1.9-5.1h-1.9v-4.1h4.3v4.1L97.4,53.5z"/>
	<path d="M140.6,51.6l-13.8-30.1l-13.8,30.1l-3.6-1.7L126.8,12l17.3,37.9L140.6,51.6z"/>
	<path d="M150.8,53.5h48v2.1h-48V53.5z"/>
	<path d="M237.1,51.6l-13.8-30.1l-13.8,30.1l-3.6-1.7L223.3,12l17.3,37.9L237.1,51.6z"/>
	<path d="M289.1,13c0,1.1-0.4,2.1-1.3,3c-0.9,0.9-1.9,1.3-3,1.3c-1.1,0-2.1-0.4-3-1.3c-0.9-0.9-1.3-1.9-1.3-3s0.4-2.1,1.3-3
		c0.9-0.9,1.9-1.3,3-1.3c1.1,0,2.1,0.4,3,1.3C288.6,10.8,289.1,11.8,289.1,13z M287.5,13c0-0.9-0.3-1.6-0.8-2.1
		c-0.5-0.5-1.2-0.8-2.1-0.8s-1.6,0.3-2.1,0.8c-0.5,0.5-0.8,1.2-0.8,2.1c0,0.9,0.3,1.6,0.8,2.1c0.5,0.5,1.2,0.8,2.1,0.8
		s1.6-0.3,2.1-0.8C287.3,14.5,287.5,13.9,287.5,13z"/>
	<path d="M308.3,46.5c0,1.9-0.6,3.5-1.9,4.7c-1.3,1.3-2.8,1.9-4.7,1.9s-3.5-0.6-4.7-1.9c-1.3-1.3-1.9-2.8-1.9-4.7s0.6-3.5,1.9-4.7
		c1.3-1.3,2.8-1.9,4.7-1.9s3.5,0.6,4.7,1.9C307.6,43.1,308.3,44.6,308.3,46.5z M306,46.5c0-1.1-0.4-2.1-1.3-3
		c-0.9-0.9-1.9-1.3-3-1.3c-1.1,0-2.1,0.4-3,1.3c-0.9,0.9-1.3,1.9-1.3,3c0,1.1,0.4,2.1,1.3,3c0.9,0.9,1.9,1.3,3,1.3
		c1.1,0,2.1-0.4,3-1.3C305.6,48.7,306,47.6,306,46.5z"/>
	<path d="M23.4,65.2c0,1.1-0.4,2.1-1.3,3s-1.9,1.3-3,1.3c-1.1,0-2.1-0.4-3-1.3c-0.9-0.9-1.3-1.9-1.3-3s0.4-2.1,1.3-3
		c0.9-0.9,1.9-1.3,3-1.3c1.1,0,2.1,0.4,3,1.3C23,63.1,23.4,64.1,23.4,65.2z M21.9,65.2c0-0.9-0.3-1.6-0.8-2.1
		c-0.5-0.5-1.2-0.8-2.1-0.8s-1.6,0.3-2.1,0.8c-0.5,0.5-0.8,1.2-0.8,2.1c0,0.9,0.3,1.6,0.8,2.1c0.5,0.5,1.2,0.8,2.1,0.8
		s1.6-0.3,2.1-0.8C21.6,66.8,21.9,66.1,21.9,65.2z"/>
	<path d="M72.8,79.7v8.1h-8.1v-8.1H72.8z"/>
	<path d="M98.9,63.7l2.1,1.9c-3.1,2.9-5.3,5.7-6.6,8.3c-1.4,2.9-2.1,6.3-2.1,10.4c0,3.4,0.7,6.6,2.1,9.6c1.3,2.8,3.5,5.8,6.6,9.2
		l-2.1,2.1c-3.1-3.5-5.5-6.8-7-10c-1.6-3.4-2.4-7-2.4-10.9c0-4.4,0.8-8.3,2.4-11.7C93.4,69.7,95.7,66.7,98.9,63.7z"/>
	<path d="M114.8,65.2c0,1.1-0.4,2.1-1.3,3c-0.9,0.9-1.9,1.3-3,1.3s-2.1-0.4-3-1.3s-1.3-1.9-1.3-3s0.4-2.1,1.3-3
		c0.9-0.9,1.9-1.3,3-1.3s2.1,0.4,3,1.3C114.3,63.1,114.8,64.1,114.8,65.2z M113.3,65.2c0-0.9-0.3-1.6-0.8-2.1
		c-0.5-0.5-1.2-0.8-2.1-0.8c-0.9,0-1.6,0.3-2.1,0.8c-0.5,0.5-0.8,1.2-0.8,2.1c0,0.9,0.3,1.6,0.8,2.1c0.5,0.5,1.2,0.8,2.1,0.8
		c0.9,0,1.6-0.3,2.1-0.8C113,66.8,113.3,66.1,113.3,65.2z"/>
	<path d="M121,71.1l7.2-8.3h6.8l-9.6,8.3H121z"/>
	<path d="M156.2,77.1v-13h20.7v33.2h4.3v10.4h-3.8v-6.8h-26.4v6.8h-3.8V97.3h3.2C154.3,92,156.2,85.3,156.2,77.1z M154.9,97.3h18.3
		V67.7H160v9.4C160,85.4,158.3,92.1,154.9,97.3z"/>
	<path d="M192.6,62.8h6.8l7,8.3H202L192.6,62.8z"/>
	<path d="M222.4,65.2c0,1.1-0.4,2.1-1.3,3s-1.9,1.3-3,1.3c-1.1,0-2.1-0.4-3-1.3s-1.3-1.9-1.3-3s0.4-2.1,1.3-3c0.9-0.9,1.9-1.3,3-1.3
		c1.1,0,2.1,0.4,3,1.3C221.9,63.1,222.4,64.1,222.4,65.2z M220.8,65.2c0-0.9-0.3-1.6-0.8-2.1c-0.5-0.5-1.2-0.8-2.1-0.8
		c-0.9,0-1.6,0.3-2.1,0.8c-0.5,0.5-0.8,1.2-0.8,2.1c0,0.9,0.3,1.6,0.8,2.1c0.5,0.5,1.2,0.8,2.1,0.8c0.9,0,1.6-0.3,2.1-0.8
		C220.6,66.8,220.8,66.1,220.8,65.2z"/>
	<path d="M244.2,105.2l-2.1-2.1c3.1-3.4,5.3-6.5,6.6-9.2c1.4-3,2.1-6.2,2.1-9.6c0-4-0.7-7.5-2.1-10.4c-1.3-2.6-3.5-5.4-6.6-8.3
		l2.1-1.9c3.3,3,5.6,6,7,8.9c1.6,3.4,2.4,7.3,2.4,11.7c0,3.9-0.8,7.5-2.4,10.9C249.7,98.3,247.4,101.7,244.2,105.2z"/>
	<path d="M280.4,98.8c0,1.9-0.6,3.5-1.9,4.7c-1.3,1.3-2.8,1.9-4.7,1.9c-1.9,0-3.5-0.6-4.7-1.9c-1.3-1.3-1.9-2.8-1.9-4.7
		s0.6-3.5,1.9-4.7c1.3-1.3,2.8-1.9,4.7-1.9c1.9,0,3.5,0.6,4.7,1.9C279.8,95.3,280.4,96.9,280.4,98.8z M278.1,98.8
		c0-1.1-0.4-2.1-1.3-3c-0.9-0.9-1.9-1.3-3-1.3c-1.1,0-2.1,0.4-3,1.3c-0.9,0.9-1.3,1.9-1.3,3s0.4,2.1,1.3,3c0.9,0.9,1.9,1.3,3,1.3
		c1.1,0,2.1-0.4,3-1.3C277.7,100.9,278.1,99.9,278.1,98.8z"/>
</g>
</svg>
